<?xml version="1.0" standalone="no"?>
<!DOCTYPE svg PUBLIC "-//W3C//DTD SVG 20010904//EN"
 "http://www.w3.org/TR/2001/REC-SVG-20010904/DTD/svg10.dtd">
<svg version="1.0" xmlns="http://www.w3.org/2000/svg"
 width="500.000000pt" height="500.000000pt" viewBox="0 0 500.000000 500.000000"
 preserveAspectRatio="xMidYMid meet">
<metadata>
Created by potrace 1.13, written by Peter Selinger 2001-2015
</metadata>
<g transform="translate(0.000000,500.000000) scale(0.100000,-0.100000)"
fill="#585858" stroke="none">
<path d="M0 2500 l0 -2500 2500 0 2500 0 0 2500 0 2500 -2500 0 -2500 0 0
-2500z m3713 2353 c10 -152 9 -1193 -1 -1193 -15 0 -32 24 -32 47 l0 23 -202
0 c-112 0 -261 3 -331 7 l-128 6 5 -223 c3 -123 9 -227 14 -232 5 -5 74 -11
155 -15 l147 -6 4 -31 c3 -17 10 -296 16 -621 6 -324 15 -763 21 -975 5 -212
7 -430 4 -485 -3 -55 -8 -257 -11 -450 -3 -192 -9 -388 -12 -434 l-7 -85 -253
3 c-236 2 -254 1 -267 -16 -12 -16 -27 -18 -115 -17 -71 1 -105 5 -110 14 -6
10 -18 11 -46 4 -22 -5 -145 -9 -274 -9 -208 0 -239 2 -263 17 -34 23 -51 23
-105 -3 -37 -18 -54 -21 -110 -15 -37 4 -154 8 -260 9 -175 2 -195 4 -207 20
-8 11 -31 21 -57 24 -67 9 -72 18 -39 67 16 22 45 57 65 76 30 28 36 39 31 62
-7 29 10 39 31 18 16 -16 54 5 87 47 21 29 27 47 27 87 -1 28 -7 62 -15 76 -8
14 -14 39 -15 56 0 34 -24 52 -45 34 -10 -8 -19 0 -37 32 -51 91 -53 99 -53
197 0 112 9 135 88 232 l52 64 0 78 c-1 42 2 77 6 77 9 0 248 39 277 45 19 5
22 12 22 53 0 63 -33 166 -54 170 -9 2 -16 9 -15 15 2 7 -4 25 -11 40 -11 22
-11 35 -3 57 9 24 7 34 -13 64 -29 43 -29 44 -3 72 21 22 21 24 5 70 -21 61
-21 114 -1 114 8 0 17 -11 21 -25 3 -14 13 -25 21 -25 11 0 13 -7 8 -30 -9
-42 2 -70 28 -70 12 0 55 -27 96 -60 41 -32 78 -57 83 -54 5 3 33 -4 62 -17
30 -12 60 -20 68 -17 38 16 83 221 48 224 -8 1 -18 3 -22 4 -16 5 -28 8 -43 9
-8 0 -33 17 -55 37 -33 30 -43 34 -55 24 -8 -7 -15 -19 -15 -26 0 -8 -4 -14
-10 -14 -5 0 -10 24 -10 54 l0 53 -45 18 c-86 32 -245 148 -245 178 0 6 19 7
53 2 66 -10 129 -10 189 -1 44 7 49 10 79 64 18 31 50 83 71 114 21 31 42 68
48 82 21 56 66 108 131 153 56 38 72 54 81 85 17 56 -2 70 -125 98 -124 27
-152 25 -152 -10 0 -15 6 -25 15 -26 35 -2 40 -5 56 -29 15 -23 15 -27 0 -50
-41 -62 -124 1 -113 86 3 23 13 49 22 58 23 23 143 19 223 -8 71 -24 142 -67
142 -86 0 -7 -17 -28 -38 -46 -21 -19 -48 -50 -60 -70 -12 -19 -31 -44 -42
-54 -60 -55 -83 -194 -47 -286 l19 -46 96 -20 c124 -26 172 -46 172 -71 0 -13
-12 -23 -40 -32 -24 -8 -36 -16 -29 -20 8 -6 8 -17 -2 -45 -13 -35 -12 -38 11
-59 14 -12 30 -29 35 -38 19 -30 93 -123 126 -160 21 -23 69 -54 124 -80 50
-24 111 -56 137 -71 69 -41 172 -183 204 -281 9 -28 21 -56 26 -63 13 -16 23
-59 48 -205 11 -65 29 -144 39 -177 17 -56 193 -395 211 -406 15 -9 23 497 16
1100 -9 767 -23 1421 -30 1434 -4 6 -230 9 -601 9 -327 0 -599 3 -605 7 -5 3
-10 12 -10 20 0 10 16 15 53 17 l52 3 3 210 c1 116 0 220 -3 232 -5 21 -5 21
-233 16 -217 -6 -230 -5 -258 14 -16 11 -48 32 -72 48 -90 59 -122 112 -135
225 -18 142 180 241 302 152 36 -27 65 -84 58 -114 -11 -41 -52 -83 -94 -96
-51 -16 -106 9 -111 51 -5 40 34 41 81 1 27 -23 30 -23 58 -8 120 62 -26 213
-158 163 -33 -12 -89 -64 -108 -99 -25 -48 8 -145 66 -194 122 -103 289 -113
456 -27 79 40 214 137 446 318 257 202 420 304 537 335 19 5 132 13 250 17
241 8 266 15 329 87 74 84 69 158 -18 237 -58 52 -146 62 -207 22 -51 -33 -42
-125 15 -156 39 -21 51 -17 51 16 0 34 14 38 44 14 33 -26 33 -52 1 -69 -63
-34 -155 8 -173 79 -22 89 24 151 128 171 72 14 105 3 166 -52 l54 -50 0 71
c0 62 2 71 18 71 17 0 20 -12 25 -107z"/>
<path d="M3623 4561 c-33 -38 -53 -51 -95 -63 l-52 -14 45 -31 c43 -30 101
-88 147 -148 l23 -30 -5 100 c-3 55 -6 130 -6 168 0 37 -3 67 -7 67 -5 -1 -27
-23 -50 -49z"/>
<path d="M2995 4452 c-110 -38 -219 -109 -505 -330 -145 -111 -293 -217 -363
-257 -82 -48 -114 -71 -105 -77 7 -5 275 -7 595 -6 l582 3 -48 46 c-70 67 -95
125 -88 206 7 87 48 168 108 208 50 34 142 46 202 26 46 -16 104 -80 113 -125
15 -82 -16 -134 -93 -156 -38 -12 -46 -11 -90 11 -41 21 -48 28 -48 54 0 44
39 48 63 6 21 -39 68 -42 106 -8 92 83 -35 219 -175 188 -51 -12 -113 -69
-140 -130 -45 -103 -6 -223 90 -275 47 -25 64 -29 145 -29 103 -1 155 16 220
73 128 113 133 343 9 467 -26 27 -78 61 -129 85 l-85 41 -142 4 c-134 3 -146
2 -222 -25z"/>
<path d="M3656 3944 c-20 -49 -57 -89 -120 -132 l-40 -27 90 -5 c49 -3 92 -4
97 -2 4 2 7 50 7 108 0 57 -3 104 -7 104 -5 0 -16 -21 -27 -46z"/>
<path d="M2270 3529 c0 -126 4 -218 10 -230 10 -18 25 -19 341 -19 l331 0 -4
218 c-1 119 -7 223 -11 230 -6 9 -85 12 -338 12 l-329 0 0 -211z"/>
<path d="M1857 1640 c-27 -21 -28 -25 -21 -79 11 -95 10 -94 144 -111 47 -5
119 -18 161 -27 l76 -17 0 -56 c0 -62 28 -136 83 -216 40 -57 60 -129 60 -215
0 -56 -5 -77 -35 -135 -19 -38 -55 -94 -80 -124 -58 -69 -89 -132 -81 -164 7
-30 64 -86 82 -79 19 7 133 157 144 190 20 57 71 443 77 580 l6 142 -61 93
c-34 51 -68 109 -76 128 -8 19 -28 48 -44 64 l-30 28 -44 -40 c-37 -33 -49
-39 -85 -38 -23 1 -50 8 -60 17 -26 22 -123 68 -158 75 -22 4 -38 0 -58 -16z"/>
<path d="M1525 499 c-36 -43 -68 -108 -61 -125 3 -8 17 -14 31 -14 14 0 25 -4
25 -10 0 -5 11 -10 25 -10 14 0 25 -4 25 -9 0 -5 19 -12 43 -16 23 -4 47 -12
54 -17 42 -34 92 29 96 122 l2 53 -55 19 c-30 10 -66 17 -80 14 -13 -2 -37 2
-52 10 -25 13 -28 12 -53 -17z"/>
<path d="M2034 499 c-54 -7 -138 -40 -166 -66 -22 -19 -23 -52 -4 -97 18 -42
39 -49 121 -41 46 5 65 11 65 22 0 11 8 12 35 7 23 -4 35 -2 35 5 0 6 9 11 19
11 34 0 34 35 1 94 -17 30 -36 58 -43 63 -7 5 -35 6 -63 2z"/>
<path d="M3245 419 c-27 -21 -55 -39 -61 -39 -24 0 -139 -43 -221 -83 l-88
-42 50 -7 c65 -8 323 -10 364 -2 l31 7 0 103 c0 77 -3 104 -12 103 -7 0 -35
-18 -63 -40z"/>
</g>
</svg>
